<?xml version="1.0" standalone="no"?>
<!DOCTYPE svg PUBLIC "-//W3C//DTD SVG 20010904//EN"
 "http://www.w3.org/TR/2001/REC-SVG-20010904/DTD/svg10.dtd">
<svg version="1.0" xmlns="http://www.w3.org/2000/svg"
 width="600.000000pt" height="600.000000pt" viewBox="0 0 600.000000 600.000000"
 preserveAspectRatio="xMidYMid meet">
<metadata>
Created by potrace 1.14, written by Peter Selinger 2001-2017
</metadata>
<g transform="translate(0.000000,600.000000) scale(0.100000,-0.100000)"
fill="#000000" stroke="none">
<path d="M0 4550 l0 -1450 1450 0 1450 0 0 1450 0 1450 -1450 0 -1450 0 0
-1450z"/>
<path d="M3100 4550 l0 -1450 1450 0 1450 0 0 1450 0 1450 -1450 0 -1450 0 0
-1450z"/>
<path d="M0 1495 l0 -1495 1497 0 1498 0 -1495 1495 c-822 822 -1496 1495
-1497 1495 -2 0 -3 -673 -3 -1495z"/>
<path d="M3100 1450 l0 -1450 1450 0 1450 0 0 1450 0 1450 -1450 0 -1450 0 0
-1450z"/>
</g>
</svg>
